<?xml version="1.0" encoding="utf-8"?>
<!-- Generator: Adobe Illustrator 25.0.0, SVG Export Plug-In . SVG Version: 6.00 Build 0)  -->
<svg version="1.1" id="Capa_1" xmlns="http://www.w3.org/2000/svg" xmlns:xlink="http://www.w3.org/1999/xlink" x="0px" y="0px"
	 viewBox="0 0 500 500" style="enable-background:new 0 0 500 500;" xml:space="preserve">
<g>
	<path d="M441.8,197.4c-4.1-15.2-13-26.4-27.6-32.8c-6.9-3-14.2-4.4-21.7-4.9c-7.2-0.4-14.3-0.1-21.4,1.2
		c-10.6,2-20.2,6.2-28.7,12.9c-0.2,0.2-0.5,0.4-0.8,0.6c-0.2-0.2-0.4-0.3-0.6-0.5c-5.3-5-11.5-8.5-18.3-10.9
		c-6.5-2.2-13.3-3.3-20.1-3.7c-7.1-0.4-14.1-0.3-21.1,0.8c-9.4,1.4-18.2,4.4-26.4,9.1c-0.3,0.2-0.6,0.3-0.9,0.5
		c-0.1-0.1-0.2-0.1-0.3-0.1c-0.3-0.2-0.6-0.4-0.9-0.7c-4.1-3.1-8.6-5.6-13.6-7.3c-6-2-12.2-2.8-18.5-2.9c-4.6-0.1-9.2,0.1-13.8,0.4
		c-5,0.4-10,1-14.9,2.3c-8,2-15.3,5.3-21.7,10.5c-0.2,0.2-0.4,0.3-0.6,0.4c-0.1-0.1-0.2-0.1-0.2-0.2c-0.2-0.3-0.3-0.6-0.5-0.8
		c-1.8-3.3-4.4-5.8-7.7-7.5c-2.2-1.2-4.5-2-7-2.6c-3.5-0.9-7-1.3-10.6-1.4c-5-0.3-10-0.1-14.9,0.9c-10.7,2.2-19.6,7.6-26.8,15.8
		c-3.3,3.8-5.9,8.1-8.4,12.4c-5.6,9.8-10.5,19.9-15.1,30.2c-5.7,12.8-10.8,25.8-14.9,39.2c-3.3,10.7-6.1,21.6-7,32.8
		c-0.4,4.7-0.4,9.5,0.5,14.2c2.3,12.1,8.6,21.5,19.2,27.9c7.7,4.7,16.2,6.7,25.1,7c5.7,0.2,11.5-0.1,17.1-1c8.3-1.3,16.2-4,23.3-8.5
		c0.5-0.3,0.9-0.4,1.5,0c9.3,6.5,19.8,9.4,31.1,10c6.6,0.3,13.2-0.2,19.7-1.5c8.7-1.7,16.8-4.8,24.2-9.8c0.2-0.2,0.5-0.3,0.7-0.4
		c1.7,1.2,3.4,2.4,5.1,3.4c8.4,5.1,17.6,7.6,27.3,8.3c5.7,0.4,11.3,0.1,16.9-0.8c13.9-2.2,26.3-7.9,37.1-17c0.3-0.3,0.6-0.5,1.1-0.9
		c0.2,0.3,0.3,0.4,0.5,0.6c4.5,5.5,10,9.5,16.4,12.4c7.4,3.4,15.3,5,23.3,5.5c6.3,0.4,12.6,0.2,18.9-0.8c9.4-1.5,18.1-4.9,26-10.2
		c6.7-4.5,12.3-10.1,17.2-16.5c6.2-8,11.2-16.8,15.6-26c3.7-7.7,6.6-15.7,9.4-23.8c3.7-11,7.1-22,8.3-33.6
		c0.6-5.6,1.2-11.2,1.3-16.8C443.5,207.6,443.1,202.5,441.8,197.4z M432.1,226.6c-1.9,13.3-5.5,26.1-10.1,38.7
		c-3.2,8.8-6.7,17.5-11.1,25.8c-3.7,7-8,13.7-13.3,19.6c-8.1,9-17.9,15.2-29.7,18c-6.9,1.7-14,2.2-21.1,1.8
		c-6.4-0.3-12.7-1.6-18.6-4.3c-9-4.1-15.5-10.6-19.3-19.8c-0.1-0.3-0.3-0.6-0.5-1.1c-0.4,0.4-0.6,0.7-0.9,1.1
		c-8.7,10.4-19.5,17.7-32.5,21.7c-7.2,2.2-14.6,3.1-22.1,2.7c-7.8-0.4-15.3-2.1-22.2-5.9c-4-2.2-7.6-5.1-10.6-8.5
		c-0.3-0.3-0.5-0.6-0.8-0.9c-0.2,0.1-0.3,0.2-0.4,0.3c-5.1,5.4-11.4,8.9-18.4,11.3c-5.6,1.9-11.3,3.1-17.2,3.4
		c-3,0.2-5.9,0.3-8.9,0.2c-8.8-0.4-17-2.7-24.4-7.5c-2.2-1.5-4.2-3.1-6.1-5c-0.3-0.3-0.5-0.6-0.8-1c-0.3,0.2-0.4,0.3-0.5,0.4
		c-5.2,5-11.5,8.2-18.4,10.2c-4.2,1.2-8.5,2-12.9,2.2c-3.5,0.2-7,0.3-10.5,0.2c-5.6-0.2-11-1.4-16.1-3.9
		c-9.1-4.4-14.6-11.6-16.9-21.4c-1-4.2-1.1-8.5-0.8-12.7c0.7-8.9,2.8-17.4,5.2-25.9c4.4-15.2,10.2-29.8,16.7-44.2
		c4.3-9.6,8.8-19,14-28.1c2.1-3.6,4.2-7.2,6.9-10.4c6-7.1,13.5-11.6,22.7-12.9c6.3-0.9,12.6-0.7,18.8,1c2.5,0.7,4.9,1.8,7,3.4
		c4.1,3.2,6.5,7.3,7,12.5c0.1,1.5,0.3,3,0.4,4.6c0.2-0.2,0.4-0.4,0.5-0.5c7.2-11,17.6-17.4,30.2-20.2c4.2-1,8.5-1.6,12.9-1.8
		c3.8-0.2,7.7-0.4,11.5-0.4c6.4,0.1,12.7,1.2,18.7,3.7c3.1,1.3,6,2.9,8.5,5.1c1.6,1.3,3,2.9,4.2,4.6c0.2,0.3,0.4,0.5,0.6,0.8
		c0.2-0.2,0.4-0.3,0.6-0.4c6.8-5.6,14.6-9.2,23.1-11.3c5.8-1.5,11.6-2.2,17.6-2.2c6-0.1,12,0.3,18,1.6c6.1,1.3,11.9,3.4,17.1,7.1
		c4.3,3.1,7.9,6.9,10.3,11.6c0.1,0.2,0.2,0.3,0.3,0.6c0.3-0.2,0.5-0.4,0.7-0.7c7.9-9,17.7-15,29.4-17.9c4.5-1.1,9-1.7,13.6-1.9
		c4.1-0.1,8.3-0.1,12.4,0.4c6.5,0.8,12.8,2.5,18.6,5.9c8.2,4.8,13.5,11.9,16.3,20.9c1.3,4.1,2,8.3,2.3,12.6
		C433.4,215.4,432.9,221,432.1,226.6z"/>
	<path d="M295.2,217.3c-0.4,1.4-0.8,2.7-1.1,4.1c-0.7,4.1,1.1,7.3,4.8,9c0.7,0.3,1.4,0.5,2.1,0.7c3,0.8,6.1,0.9,9.2,0.5
		c7.5-1.1,13.1-5,16.4-11.9c2.5-5.3,3.6-11,3.1-16.8c-0.3-4.5-2-8.4-5.2-11.7c-2.4-2.5-5.3-4.2-8.4-5.5c-4.1-1.7-8.4-2.6-12.9-3
		c-6.6-0.6-13.2-0.5-19.8,0.6c-9.6,1.7-18.1,5.8-25.2,12.5c-5.2,4.9-9.3,10.6-12.8,16.8c-6.1,10.7-10.9,21.9-14.9,33.6
		c-3.5,10.3-6.4,20.8-7.8,31.6c-0.7,5.1-0.8,10.3,0.1,15.4c0.7,3.8,1.8,7.4,3.8,10.7c3.9,6.6,9.7,10.6,16.9,12.7
		c6.1,1.8,12.4,2,18.7,1.3c9.2-1,17.6-4.3,25.1-9.8c7.7-5.6,13.6-12.8,18.2-21c4.4-7.9,7.2-16.3,8.8-25.1c0.7-3.8,1.1-7.6,0.5-11.4
		c-0.9-5.4-3.8-9.3-9-11.1c-1.6-0.6-3.3-1-5-1.2c-4.8-0.6-9.6-0.3-14.3,0.6c-3.5,0.7-6.8,2-9.3,4.5c-3.8,3.8-5.8,8.4-6.3,13.6
		c-0.3,2.9,0.9,5.3,3.3,7c1.3,0.9,2.7,1.5,4.2,1.8c1.1,0.2,2.1,0.4,3.3,0.6c0,0.2,0.1,0.2,0.1,0.3c0,0.1,0,0.2,0,0.3
		c-1.1,4.7-3,9.1-6,12.9c-1.8,2.3-3.9,4.3-6.5,5.7c-2.3,1.3-4.8,1.9-7.5,1.6c-3.4-0.3-5.5-2.2-6.2-5.5c-0.4-1.9-0.3-3.7-0.1-5.6
		c0.4-3.2,1.1-6.3,2-9.3c3.6-12.9,8.2-25.3,13.6-37.6c1.7-3.8,3.4-7.5,5.6-11c1.7-2.7,3.8-5.2,6.6-7c2.9-1.8,6.1-2.3,9.5-1.7
		c2.3,0.5,3.3,1.8,3,4.1C295.9,214.9,295.5,216.1,295.2,217.3z"/>
	<path d="M414.8,193c-3.3-4.3-7.8-7-12.9-8.6c-4.8-1.5-9.7-1.9-15.4-2c-0.9,0-2.4,0.1-3.9,0.2c-4.4,0.3-8.6,1-12.8,2.3
		c-8.6,2.7-15.4,7.8-21,14.8c-4,5-7.1,10.6-9.8,16.4c-5,10.9-9.3,22.1-12.9,33.6c-3.5,11.1-6.3,22.3-7.2,33.9
		c-0.4,4.6-0.3,9.3,0.8,13.8c1.9,8.1,6.6,13.8,14.3,17.2c2.7,1.2,5.6,2,8.5,2.5c6,1,11.9,1,17.9,0.3c9.2-1.1,17.2-4.8,24-11
		c4.9-4.5,8.9-9.8,12.2-15.5c5.5-9.5,10-19.6,13.8-29.9c4.9-13.4,8.6-27.2,10-41.5c0.5-4.9,0.4-9.9-0.5-14.7
		C419.1,200.5,417.5,196.5,414.8,193z M389.1,219.5c-1.1,6-2.8,11.9-4.7,17.7c-3.9,12.2-8.3,24.2-13.4,35.9
		c-1.2,2.8-2.5,5.7-4.2,8.3c-0.9,1.3-1.9,2.6-3,3.7c-1.8,1.8-4.1,2.6-6.7,2.5c-3.2-0.2-5.4-2.2-5.8-5.4c-0.1-0.5-0.1-1.1-0.1-1.4
		c0.1-2.8,0.7-5.3,1.3-7.7c2.3-9.2,5.3-18.1,8.5-26.9c3-8.3,6.2-16.5,10-24.5c1.2-2.5,2.5-5,4.1-7.3c2.6-3.7,6.2-4.7,10.4-4.1
		c2,0.3,3.3,1.6,3.7,3.7C389.6,215.7,389.4,217.6,389.1,219.5z"/>
	<path d="M222.4,241.3c-0.2-2.8-1.4-5-3.7-6.6c-1.2-0.9-2.6-1.4-4.1-1.8c-2.6-0.7-5.2-1.1-7.9-1c-3.2,0.1-6.3,0.3-9.5,0.5
		c-0.8,0.1-1.6,0.2-2.4,0.3c0-0.2,0-0.3,0-0.4c2.1-5.3,4.5-10.5,7.4-15.4c0.3-0.5,0.6-0.6,1.2-0.5c0.6,0.1,1.2,0.1,1.9,0.1
		c5.2,0.1,10.4-0.1,15.7-0.4c3.9-0.3,7.7-1.1,11.3-2.8c7.2-3.4,10.9-9,10.9-16.9c0-2.7-0.9-5.1-2.6-7.2c-1.4-1.7-3.1-3-5-4
		c-3.3-1.8-6.9-2.7-10.7-3.1c-3.5-0.4-6.9-0.3-10.4-0.2c-4.2,0.1-8.4,0.5-12.5,1.3c-8.9,1.6-16.3,5.8-22.3,12.5
		c-4,4.5-7.2,9.5-9.9,14.8c-6,11.5-11,23.5-15.1,35.8c-4.1,12-7.4,24.2-8.6,36.9c-0.4,3.9-0.6,7.8,0.1,11.7c1.1,6.5,4.1,12,9.3,16.1
		c5.3,4.2,11.4,6.3,18,6.9c6.4,0.6,12.8,0,19-1.5c4.7-1.1,9.1-2.8,13.1-5.6c6.3-4.3,9.8-10.2,10.2-18c0.3-5.9-2.4-10.1-7.8-12.2
		c-0.2-0.1-0.4-0.2-0.6-0.2c-2.3-0.8-4.6-1.2-7-1.3c-6.4-0.3-12.7,0.3-18.9,1.9c-1,0.3-2,0.5-3.2,0.8c1.7-6.9,3.8-13.4,6.1-19.9
		c0.3,0,0.5,0,0.7,0c3,0.4,6.1,0.9,9.1,1.1c4.1,0.4,8.2,0.2,12.3-0.7c4.5-1.1,8.3-3.3,11.2-7c2.2-2.8,3.5-6,4.3-9.4
		C222.4,244.3,222.5,242.8,222.4,241.3z"/>
	<path d="M151.6,191.5c-0.6-3.7-2.5-6.3-6.1-7.6c-0.5-0.2-1-0.3-1.5-0.4c-3-0.7-6-0.6-8.9-0.2c-4.5,0.5-8.6,2.2-12.1,5.2
		c-2.5,2.1-4.5,4.7-6.2,7.5c-1.5,2.5-3,5-4.4,7.6c-9.2,17.3-17,35.2-23.5,53.6c-3.3,9.4-6.3,19-8,28.9c-0.8,4.3-1.3,8.7-1,13.1
		c0.5,7,3.8,12.2,10.1,15.5c3.4,1.7,7,2.6,10.8,2.9c5.1,0.4,10.1,0.1,15.1-0.7c4.1-0.7,8-1.8,11.8-3.7c4.6-2.3,8.2-5.6,10.7-10.2
		c1.9-3.5,2.8-7.2,3.1-11.1c0.3-4.4-1.7-7.7-5.7-9.7c-1.6-0.8-3.2-1.2-4.9-1.5c-4.1-0.7-8.2-0.4-12.3,0.1c-0.9,0.1-1.7,0.2-2.8,0.4
		c0.3-0.8,0.6-1.4,0.8-1.9c4.1-8.5,8.2-17.1,12.3-25.6c5.6-11.7,11.2-23.4,16-35.4c2.3-5.8,4.5-11.6,5.9-17.6
		C151.5,197.6,152,194.6,151.6,191.5z"/>
</g>
</svg>
